<?xml version="1.0" standalone="no"?>
<!DOCTYPE svg PUBLIC "-//W3C//DTD SVG 20010904//EN"
 "http://www.w3.org/TR/2001/REC-SVG-20010904/DTD/svg10.dtd">
<svg version="1.0" xmlns="http://www.w3.org/2000/svg"
 width="592.000000pt" height="592.000000pt" viewBox="0 0 592.000000 592.000000"
 preserveAspectRatio="xMidYMid meet">
<metadata>
Created by potrace 1.11, written by Peter Selinger 2001-2013
</metadata>
<g transform="translate(0.000000,592.000000) scale(0.100000,-0.100000)"
fill="#000000" stroke="none">
<path d="M0 2960 l0 -2960 2960 0 2960 0 0 2960 0 2960 -2960 0 -2960 0 0
-2960z m2517 1608 l343 -343 0 -500 0 -500 -350 350 -350 351 0 492 c0 271 3
492 7 492 5 0 162 -154 350 -342z m1243 -145 l0 -488 -346 -352 c-190 -194
-350 -353 -355 -353 -5 0 -9 203 -9 492 l0 492 353 348 c193 191 353 347 355
348 1 0 2 -219 2 -487z m-1385 -983 l350 -350 -495 0 -495 0 -350 350 -350
350 495 0 495 0 350 -350z m2160 0 l-350 -350 -500 0 -500 1 355 349 355 349
495 1 495 0 -350 -350z m-1503 -377 c41 -39 39 -95 -4 -140 -41 -43 -92 -45
-137 -7 -26 22 -31 33 -31 72 0 65 36 102 99 102 35 0 51 -6 73 -27z m-312
-172 c0 -5 -156 -163 -347 -350 l-348 -341 -488 0 -489 0 343 350 343 350 493
0 c292 0 493 -4 493 -9z m1815 -341 l350 -350 -500 0 -500 0 -350 350 -350
350 500 0 500 0 350 -350z m-2017 -1127 c-189 -189 -346 -343 -350 -343 -5 0
-8 219 -8 488 l0 487 348 354 347 354 3 -499 2 -499 -342 -342z m1242 145 c0
-269 -3 -488 -7 -488 -5 0 -164 156 -355 347 l-348 348 0 495 0 495 355 -355
355 -355 0 -487z"/>
</g>
</svg>
